# xmcd
#
# Track frame offsets:
#	150
#	22789
#	41455
#	62735
#
# Disc length: 1159 seconds
#
# Revision: 0
# Processed by: cddbd v1.5.1PL0 Copyright (c) Steve Scherf et al.
# Submitted via: dBpowerAMP V4.0
#
DISCID=25048504
DTITLE=Air Formation - 57 Octaves Below EP
DYEAR=2005
DGENRE=Shoegazer
TTITLE0=For The Hours
TTITLE1=Never Far Away
TTITLE2=Ghosts
TTITLE3=Hope
EXTD=
EXTT0=
EXTT1=
EXTT2=
EXTT3=
PLAYORDER=
